<?xml version="1.0" encoding="utf-8"?>
<!-- Generator: Adobe Illustrator 27.1.1, SVG Export Plug-In . SVG Version: 6.00 Build 0)  -->
<svg version="1.1" id="Layer_1" xmlns="http://www.w3.org/2000/svg" xmlns:xlink="http://www.w3.org/1999/xlink" x="0px" y="0px"
	 viewBox="0 0 535 105.13" style="enable-background:new 0 0 535 105.13;" xml:space="preserve">
<style type="text/css">
	.st0{fill:#FFFFFF;}
</style>
<g>
	<path class="st0" d="M311.87,46.3c-0.46-1.5-1.34-3.07-2.66-4.69c-1.31-1.62-3.02-3.01-5.11-4.15c-2.1-1.14-4.95-2.09-8.56-2.84
		c-2.96-0.62-6.33-0.98-10.09-1.09c-0.81-0.02-83.29-0.03-83.85-0.02c-18.59,0.33-27.88,6.19-27.88,17.57v1.08
		c0,2.17,0.41,4.21,1.23,6.13c0.82,1.92,2.21,3.85,4.18,5.77c1.97,1.92,5.02,3.46,9.15,4.6c3.81,1.05,8.38,1.62,13.7,1.7
		c0.44,0.01,82.41,0,83.1-0.02c4.93-0.12,9.19-0.67,12.78-1.64c4.1-1.11,7.16-2.62,9.19-4.51c2.03-1.89,3.46-3.8,4.28-5.73
		s1.23-3.97,1.23-6.13v-1.26h0C312.56,49.4,312.33,47.81,311.87,46.3z"/>
	<path class="st0" d="M473.13,28.47h-17.53v46.58h17.53c14.63,0,21.94-7.75,21.94-23.24C495.07,36.25,487.76,28.47,473.13,28.47z"/>
	<path class="st0" d="M6.55,4.87v94.43h519.38V4.87H6.55z M30.71,87.21H16.13V16.32h14.59V87.21z M81.94,67.62
		c-0.15,2.75-0.77,5.39-1.97,7.9c-0.76,1.59-1.62,3.09-2.74,4.44c-1.48,1.79-3.21,3.27-5.26,4.38c-2.05,1.12-4.25,1.8-6.53,2.17
		c-1.24,0.2-2.51,0.25-3.77,0.32c-1.93,0.1-3.86,0.15-5.79,0.21c-1.79,0.05-3.58,0.11-5.37,0.13c-4.44,0.03-8.88,0.03-13.32,0.05
		c-0.07,0-0.13-0.01-0.27-0.01c0-3.99,0-7.98,0-11.96c0.02-0.01,0.03-0.02,0.05-0.02c5.37-0.02,10.73-0.04,16.1-0.07
		c1.24-0.01,2.48-0.02,3.72-0.11c1.22-0.08,2.44-0.2,3.65-0.4c2.02-0.34,3.65-1.41,4.96-2.97c1.42-1.69,1.72-3.74,1.77-5.84
		c0.02-0.74-0.14-1.49-0.28-2.22c-0.47-2.48-1.88-4.29-4.05-5.54c-1.62-0.94-3.43-1.22-5.24-1.4c-1.45-0.14-2.91-0.23-4.37-0.3
		c-1.26-0.06-2.52-0.07-3.78-0.07c-4.17-0.01-8.35-0.01-12.52-0.02c0.01-3.93,0.01-7.86,0.01-11.79c0.03-0.01,0.07-0.02,0.1-0.03
		c0.18,0,0.37,0.01,0.55,0.01c5.03-0.03,10.07-0.05,15.1-0.11c1.3-0.01,2.6-0.12,3.89-0.19c1.17-0.06,2.29-0.33,3.36-0.8
		c1.99-0.88,3.46-2.26,4.17-4.38c0.48-1.44,0.45-2.9,0.29-4.38c-0.23-2.04-1.2-3.64-2.85-4.82c-1.05-0.75-2.27-1.14-3.53-1.31
		c-1.25-0.17-2.52-0.24-3.78-0.29c-1.69-0.06-3.39-0.07-5.09-0.08c-4.07-0.01-8.15-0.01-12.22-0.02c0-3.92,0-7.85,0-11.83
		c0.18,0,0.32,0,0.46,0c4.51,0,9.02,0,13.53,0c0.93,0,1.86,0.01,2.79,0.03c1.16,0.02,2.32,0.04,3.47,0.1
		c2.9,0.17,5.82,0.29,8.64,1.11c2.56,0.74,4.85,1.98,6.84,3.79c2.38,2.16,4.17,4.7,5.11,7.79c0.32,1.06,0.46,2.18,0.59,3.29
		c0.11,0.88,0.14,1.78,0.11,2.67c-0.1,2.54-0.76,4.94-1.99,7.17c-0.79,1.43-1.75,2.74-2.92,3.89c-1.29,1.27-2.73,2.34-4.37,3.1
		c-0.16,0.07-0.31,0.17-0.5,0.28c0.74,0.27,1.42,0.51,2.1,0.76c2.39,0.91,4.5,2.23,6.32,4.05c1.94,1.94,3.36,4.19,4.1,6.83
		c0.32,1.17,0.51,2.38,0.66,3.58C81.95,65.69,81.99,66.66,81.94,67.62z M121.45,60.96v26.26h-14.59V60.96L83.33,16.32h16.24
		l14.49,31.31l13.52-31.31h16.34L121.45,60.96z M336.55,53.16c0,1.92-0.13,3.79-0.39,5.59c-0.26,1.8-0.85,3.86-1.77,6.18
		c-0.92,2.31-2.1,4.45-3.54,6.4c-1.44,1.95-3.49,3.91-6.15,5.86c-2.65,1.95-5.72,3.61-9.19,4.96c-3.47,1.35-7.82,2.45-13.03,3.29
		s-11,1.26-17.36,1.26h-83.87c-6.36,0-12.16-0.42-17.41-1.26s-9.6-1.94-13.08-3.29c-3.47-1.35-6.54-3.01-9.19-4.96
		c-2.65-1.95-4.72-3.91-6.2-5.86c-1.47-1.95-2.65-4.09-3.54-6.4s-1.46-4.37-1.72-6.18c-0.26-1.8-0.39-3.67-0.39-5.59v-2.71
		c0-1.98,0.13-3.86,0.39-5.64c0.26-1.77,0.84-3.82,1.72-6.13c0.89-2.31,2.07-4.43,3.54-6.36c1.48-1.92,3.52-3.85,6.15-5.77
		c2.62-1.92,5.69-3.55,9.19-4.87c3.51-1.32,7.88-2.39,13.13-3.2c5.24-0.81,11.05-1.22,17.41-1.22h83.87
		c6.36,0,12.13,0.41,17.31,1.22s9.52,1.88,13.03,3.2c3.51,1.32,6.57,2.95,9.19,4.87c2.62,1.92,4.67,3.85,6.15,5.77
		c1.47,1.92,2.67,4.03,3.59,6.31s1.51,4.33,1.77,6.13c0.26,1.8,0.39,3.7,0.39,5.68V53.16z M427.5,87.18c-0.34,0-0.67,0-0.99,0
		c-5.91,0-11.81-0.04-17.71,0.03c-1.14,0.01-1.87-0.33-2.56-1.21c-2.05-2.61-4.21-5.13-6.28-7.72c-1.68-2.09-3.27-4.26-4.95-6.35
		c-1.32-1.64-2.75-3.19-4.07-4.83c-1.46-1.83-2.82-3.74-4.27-5.58c-1.32-1.69-2.7-3.33-4.06-4.99c-1.37-1.67-2.74-3.34-4.11-5.02
		c-1.69-2.07-3.4-4.14-5.07-6.23c-1.22-1.52-2.38-3.09-3.59-4.62c-0.55-0.7-1.18-1.34-1.77-2c-0.04,0.04-0.08,0.09-0.12,0.13
		c-0.01,4.91-0.02,9.82-0.02,14.73c0,10.85,0,21.7,0,32.54c0,0.33,0,0.66,0,1.03c-0.25,0.03-0.45,0.07-0.65,0.07
		c-6.32,0-12.65,0-18.97,0c-0.15,0-0.3-0.03-0.45-0.05c-0.13-0.07-0.34-0.11-0.37-0.21c-0.06-0.19-0.03-0.42-0.03-0.63
		c0-23.02,0-46.03,0.01-69.05c0-0.29,0.23-0.59,0.35-0.88c4.13-0.01,8.25-0.03,12.38-0.04c2.53-0.01,5.06-0.02,7.59,0.02
		c0.32,0,0.72,0.2,0.93,0.44c1.43,1.66,2.82,3.35,4.2,5.05c0.75,0.92,1.45,1.88,2.19,2.8c1.02,1.26,2.07,2.49,3.09,3.76
		c1.13,1.41,2.22,2.85,3.36,4.25c1.21,1.48,2.47,2.92,3.67,4.41c0.77,0.95,1.45,1.97,2.21,2.92c0.97,1.2,1.99,2.36,2.97,3.55
		c1.14,1.39,2.23,2.82,3.36,4.22c1.66,2.05,3.35,4.09,5.01,6.14c1.35,1.67,2.66,3.36,4.01,5.03c1.42,1.76,2.85,3.51,4.46,5.49
		c0-16.16,0-32.07,0-48.03c6.82,0,13.49,0,20.23,0C427.5,39.93,427.5,63.52,427.5,87.18z M502.99,78.94
		c-6.15,5.51-16.1,8.27-29.86,8.27h-37V16.32h37c7.27,0,13.26,0.65,17.98,1.94c4.72,1.3,8.68,3.37,11.88,6.22
		c7.7,6.87,11.55,15.95,11.55,27.23C514.55,63.13,510.7,72.2,502.99,78.94z"/>
</g>
</svg>
