<?xml version="1.0" encoding="UTF-8"?>
<svg id="Layer_1" data-name="Layer 1" xmlns="http://www.w3.org/2000/svg" viewBox="0 0 474.87 67.57">
  <defs>
    <style>
      .cls-1 {
        fill: #fff;
      }
    </style>
  </defs>
  <g>
    <path class="cls-1" d="m13.9.03v67.54H0V.03h13.9Z"/>
    <path class="cls-1" d="m100.34,42.55v25.02h-13.9v-25.02L64.02.03h15.47l13.81,29.83L106.18.03h15.57l-21.4,42.53Z"/>
  </g>
  <path class="cls-1" d="m19.8,11.27V0h.44C24.53,0,28.83,0,33.13,0c.89,0,1.77,0,2.66.03,1.1.02,2.21.03,3.31.1,2.77.16,5.55.28,8.23,1.06,2.44.71,4.62,1.89,6.52,3.61,2.27,2.06,3.98,4.48,4.87,7.42.31,1.01.44,2.08.57,3.13.1.84.13,1.7.1,2.54-.09,2.42-.72,4.7-1.9,6.83-.75,1.37-1.67,2.61-2.78,3.71-1.23,1.21-2.6,2.23-4.17,2.96-.15.07-.29.16-.48.27.71.26,1.36.48,2,.73,2.27.87,4.29,2.13,6.02,3.86,1.85,1.85,3.2,3.99,3.9,6.51.31,1.11.49,2.27.63,3.41.11.9.15,1.83.1,2.74-.14,2.62-.74,5.14-1.87,7.53-.72,1.51-1.54,2.95-2.61,4.23-1.41,1.7-3.06,3.11-5.01,4.18-1.96,1.07-4.05,1.71-6.23,2.06-1.18.19-2.39.24-3.59.3-1.84.09-3.68.14-5.52.2-1.7.05-3.41.11-5.11.12-4.23.03-8.46.03-12.69.05-.06,0-.12,0-.26-.01v-11.4s.03-.01.05-.01c5.11-.02,10.23-.04,15.34-.07,1.18,0,2.37-.02,3.54-.1,1.16-.08,2.33-.19,3.48-.38,1.93-.32,3.48-1.34,4.73-2.83,1.35-1.61,1.64-3.56,1.69-5.56.02-.7-.13-1.42-.26-2.11-.45-2.36-1.8-4.08-3.86-5.28-1.55-.89-3.26-1.16-5-1.33-1.38-.14-2.77-.22-4.16-.28-1.2-.06-2.4-.07-3.6-.07-3.98-.01-7.95-.01-11.93-.02,0-3.74,0-7.49.01-11.23.03,0,.06-.02.09-.02.17,0,.35.01.52.01,4.8-.03,9.59-.05,14.39-.1,1.24-.01,2.47-.12,3.71-.18,1.11-.06,2.19-.31,3.2-.76,1.9-.84,3.3-2.16,3.97-4.17.46-1.37.43-2.76.27-4.17-.22-1.94-1.14-3.47-2.72-4.59-1-.71-2.16-1.08-3.36-1.24-1.19-.16-2.4-.23-3.6-.27-1.61-.06-3.23-.07-4.85-.07-3.88-.01-7.76-.01-11.65-.02Z"/>
  <path class="cls-1" d="m256.31.92c6.06,0,11.56.39,16.49,1.16s9.07,1.79,12.42,3.05c3.34,1.26,6.26,2.81,8.76,4.64,2.5,1.83,4.45,3.67,5.86,5.5s2.55,3.84,3.42,6.02c.88,2.18,1.44,4.13,1.69,5.84s.38,3.52.38,5.41v2.58c0,1.83-.12,3.61-.38,5.33s-.81,3.68-1.69,5.89c-.87,2.21-2,4.24-3.37,6.1s-3.33,3.72-5.86,5.59c-2.53,1.86-5.45,3.44-8.76,4.73-3.31,1.29-7.45,2.33-12.41,3.14-4.97.8-10.48,1.2-16.54,1.2h-79.92c-6.06,0-11.59-.4-16.58-1.2-5-.8-9.15-1.85-12.46-3.14-3.31-1.29-6.23-2.87-8.76-4.73-2.53-1.86-4.5-3.72-5.9-5.59-1.41-1.86-2.53-3.9-3.37-6.1-.84-2.21-1.39-4.17-1.64-5.89-.25-1.72-.37-3.5-.37-5.33v-2.58c0-1.89.12-3.68.37-5.37.25-1.69.8-3.64,1.64-5.84.84-2.21,1.97-4.23,3.37-6.06,1.41-1.83,3.36-3.67,5.86-5.5,2.5-1.83,5.42-3.38,8.76-4.64,3.34-1.26,7.51-2.28,12.51-3.05,5-.77,10.53-1.16,16.58-1.16h79.92Zm26.14,32.23c0-1.6-.22-3.12-.66-4.55-.44-1.43-1.28-2.92-2.53-4.47-1.25-1.55-2.87-2.87-4.87-3.95-2-1.09-4.72-1.99-8.15-2.71-2.83-.59-6.03-.94-9.62-1.04-.77-.02-79.36-.03-79.9-.02-17.71.32-26.57,5.9-26.57,16.74v1.03c0,2.06.39,4.01,1.17,5.84.78,1.83,2.11,3.67,3.98,5.5,1.87,1.83,4.78,3.29,8.71,4.38,3.63,1.01,7.99,1.55,13.06,1.62.42,0,78.52,0,79.18-.01,4.7-.12,8.76-.64,12.18-1.57,3.9-1.06,6.83-2.49,8.76-4.3,1.94-1.8,3.29-3.62,4.08-5.46.78-1.83,1.17-3.78,1.17-5.84v-1.2h0Z"/>
  <g>
    <path class="cls-1" d="m335.21,21.44c0,4.68-.02,9.36-.02,14.04,0,10.34,0,20.67,0,31.01v.98c-.24.03-.43.07-.62.07-6.02,0-12.05,0-18.07,0-.14,0-.28-.03-.42-.05-.01-.23-.03-.46-.03-.69,0-22.25,0-44.49,0-66.74,3.93-.01,7.86-.03,11.79-.04,2.41,0,4.82-.02,7.23.02.3,0,.69.19.88.42,1.36,1.58,2.68,3.19,4,4.81.71.88,1.38,1.79,2.09,2.67.97,1.2,1.98,2.38,2.94,3.58,1.08,1.34,2.11,2.71,3.2,4.05,1.15,1.41,2.35,2.78,3.5,4.2.73.9,1.38,1.87,2.11,2.78.92,1.15,1.9,2.25,2.83,3.39,1.08,1.33,2.13,2.69,3.2,4.02,1.58,1.96,3.19,3.89,4.78,5.85,1.28,1.59,2.54,3.2,3.82,4.79,1.35,1.68,2.72,3.35,4.25,5.23V.08h19.27v67.45h-.94c-5.63,0-11.25-.03-16.88.03-1.09.01-1.78-.31-2.44-1.15-1.96-2.48-4.01-4.89-5.98-7.36-1.6-2-3.11-4.06-4.71-6.05-1.26-1.56-2.62-3.03-3.87-4.6-1.39-1.74-2.69-3.56-4.07-5.32-1.26-1.61-2.57-3.17-3.87-4.75-1.3-1.59-2.61-3.19-3.91-4.78-1.61-1.97-3.24-3.94-4.83-5.93-1.16-1.45-2.27-2.95-3.42-4.4-.53-.66-1.12-1.27-1.68-1.91l-.1-.15c0,.09-.01.18-.02.28Z"/>
    <path class="cls-1" d="m316.04.07c0,22.25,0,44.49,0,66.74,0,.23.02.46.03.69-.12-.07-.32-.11-.35-.2-.06-.18-.02-.4-.02-.6,0-21.93,0-43.86.01-65.79,0-.28.22-.56.33-.84Z"/>
    <path class="cls-1" d="m335.21,21.44c0-.09.01-.18.02-.28l.1.15s-.08.08-.12.13Z"/>
  </g>
  <path class="cls-1" d="m400.16,67.57V.03h35.25c6.93,0,12.64.62,17.13,1.85,4.49,1.24,8.27,3.21,11.32,5.93,7.34,6.55,11.01,15.19,11.01,25.94s-3.67,19.52-11.01,25.94c-5.86,5.25-15.34,7.88-28.45,7.88h-35.25Zm18.55-11.58h16.7c13.94,0,20.9-7.38,20.9-22.14s-6.97-22.24-20.9-22.24h-16.7v44.38Z"/>
</svg>