<?xml version="1.0" encoding="utf-8"?>
<!-- Generator: Adobe Illustrator 27.1.1, SVG Export Plug-In . SVG Version: 6.00 Build 0)  -->
<svg version="1.1" id="Layer_1" xmlns="http://www.w3.org/2000/svg" xmlns:xlink="http://www.w3.org/1999/xlink" x="0px" y="0px"
	 viewBox="0 0 1596.5 404.3" style="enable-background:new 0 0 1596.5 404.3;" xml:space="preserve">
<style type="text/css">
	.st0{enable-background:new    ;}
	.st1{fill:#FFFFFF;}
</style>
<g class="st0">
	<path class="st1" d="M343.2,354.2c28,0,50.6-5.5,67.9-16.6l2.8,3.2c-23.2,32-52,49.8-86.5,53.3c-7.3,0.8-13.5,1.2-18.8,1.2
		s-11.3-0.2-18.2-0.6s-16.5-2.2-28.9-5.5c-12.4-3.2-23.3-6.5-32.7-9.9c-9.4-3.4-20.3-7.8-32.7-13.3c-12.4-5.5-22.6-10.4-30.7-14.5
		c-8.1-4.2-17.7-9.2-28.9-14.9c-11.2-5.8-20.9-10.7-29.3-14.7c-8.4-4-16.4-7.5-24.2-10.5c-22.1-8.9-44.7-13.3-67.9-13.3v-4h5.3
		c7,0,13-2.4,18-7.3c5-4.8,7.6-10.9,7.9-18.2V44.7c-0.3-7.3-2.9-13.3-7.9-18.2c-5-4.8-11-7.3-18-7.3h-5.3v-4H138l-0.4,4h-4
		c-10.2,0-17.9,4.2-23,12.5c-2.4,3.8-3.6,8.1-3.6,12.9v234.3c0,8.9,1.7,15,5.3,18.4c3.5,3.4,7.4,5.7,11.7,7.1
		C225.1,337.6,298.3,354.2,343.2,354.2z"/>
</g>
<g class="st0">
	<path class="st1" d="M396,101.3h-4.8c-4,0-7.5,1.3-10.4,3.8c-2.9,2.6-4.4,5.8-4.4,9.6v111.2c0,23.4-7.3,41.9-22,55.6
		c-14.6,13.7-34.7,20.5-60.2,20.5c-30,0-53-6.7-69-20.1c-16-13.4-24-32-24-55.7V115.6c0-4.2-1.5-7.6-4.4-10.3c-2.9-2.7-6.5-4-10.7-4
		h-4.6v-2.9h82.1v2.9h-4.6c-4.2,0-7.7,1.3-10.5,3.8c-2.9,2.6-4.4,5.8-4.6,9.8v108.9c0,20.1,4.9,36.1,14.8,47.9
		c9.9,11.8,23.5,17.7,40.8,17.7c17.3,0,31-5.6,41.1-16.7c10.1-11.1,15.2-26.2,15.4-45.2V115c0-4-1.5-7.3-4.4-9.8
		c-2.9-2.6-6.5-3.8-10.7-3.8h-4.6v-2.9H396V101.3z"/>
	<path class="st1" d="M637.7,101.3c-4.8,0-8.8,1.7-12.3,5c-3.4,3.3-5.2,7.4-5.4,12.1v147.1c0,12.7,0.9,23.5,2.6,32.2l0.9,4.3h-2.6
		l-144-137.1v113.2c0,4.8,1.7,8.8,5.1,12.1c3.4,3.3,7.5,5,12.3,5h5.4v2.9h-86.4v-2.9h5.1c4.9,0,9.1-1.7,12.5-5
		c3.4-3.3,5.1-7.5,5.1-12.4v-148c0-12.5-0.9-23-2.6-31.4l-0.6-4.3h2.6l144,137.1V118.7c-0.2-4.9-2-9.1-5.4-12.4
		c-3.4-3.3-7.5-5-12.3-5h-5.1v-2.9h86.4v2.9H637.7z"/>
	<path class="st1" d="M880.1,205.4h-4.3c-4.6,0-8.1,1.1-10.5,3.3c-2.5,2.2-3.7,5.4-3.7,9.6v47c-7.4,9.7-19.7,18.2-36.8,25.7
		S788.5,302,767.2,302c-32.5,0-58.6-9.4-78.3-28.1c-19.7-18.7-29.5-44-29.5-75.8c0-31.8,9.8-57.1,29.5-75.7
		c19.7-18.6,46.3-27.9,80-27.9c15.2,0,29.9,1.5,44.2,4.4c14.3,2.9,25.8,6.6,34.5,11l0.6,49h-2.6c-4.9-18.4-13.4-31.8-25.4-40.1
		c-12-8.3-26.2-12.4-42.8-12.4c-23,0-40.7,8.2-53,24.7c-12.4,16.4-18.5,39-18.5,67.6c0,28.6,5.7,51,17,67.1
		c11.3,16.2,27.3,24.2,48,24.2c15,0,27.6-4.3,37.6-12.8c4.9-4.4,8.6-9.5,10.8-15.4v-43.6c0-4.2-1.3-7.4-3.8-9.6
		c-2.6-2.2-6.2-3.3-11-3.3H800v-2.9h80.1V205.4z"/>
	<path class="st1" d="M1118.5,205.4h-4.3c-4.6,0-8.1,1.1-10.5,3.3c-2.5,2.2-3.7,5.4-3.7,9.6v47c-7.4,9.7-19.7,18.2-36.8,25.7
		s-36.3,11.1-57.6,11.1c-32.5,0-58.6-9.4-78.3-28.1c-19.7-18.7-29.5-44-29.5-75.8c0-31.8,9.8-57.1,29.5-75.7
		c19.7-18.6,46.3-27.9,80-27.9c15.2,0,29.9,1.5,44.2,4.4c14.3,2.9,25.8,6.6,34.5,11l0.6,49h-2.6c-4.9-18.4-13.4-31.8-25.4-40.1
		c-12-8.3-26.2-12.4-42.8-12.4c-23,0-40.7,8.2-53,24.7c-12.4,16.4-18.5,39-18.5,67.6c0,28.6,5.7,51,17,67.1
		c11.3,16.2,27.3,24.2,48,24.2c15,0,27.6-4.3,37.6-12.8c4.9-4.4,8.6-9.5,10.8-15.4v-43.6c0-4.2-1.3-7.4-3.8-9.6
		c-2.6-2.2-6.2-3.3-11-3.3h-4.6v-2.9h80.1V205.4z"/>
	<path class="st1" d="M1329.7,295.2h2.6v2.9h-91v-2.9h2.6c4.2,0,7.3-1.3,9.3-3.8c2-2.6,3-5,3-7.3s-0.5-4.6-1.4-6.8l-14-35.1h-66.7
		l-14.8,35.1c-1,2.5-1.4,4.8-1.4,7c0,2.2,1,4.6,3,7.1c2,2.6,5.2,3.8,9.6,3.8h2.3v2.9h-61v-2.9h2.6c4.4,0,8.7-1.3,13.1-4
		c4.4-2.7,8-6.7,10.8-12l65.9-149.1c8.9-18.8,13.7-31.3,14.3-37.4h2.6l84.7,185.9c2.9,5.5,6.5,9.6,10.8,12.4
		C1320.7,293.8,1325.2,295.2,1329.7,295.2z M1178.9,230.2h57l-27.7-70.1L1178.9,230.2z"/>
	<path class="st1" d="M1415,110.2v167.4c0.2,4.9,2,9.1,5.6,12.5c3.5,3.4,7.7,5.1,12.7,5.1h3.4l0.3,2.9h-86.7v-2.9h3.7
		c4.7,0,8.9-1.7,12.4-5.1c3.5-3.4,5.5-7.5,5.8-12.3V110.2h-38.5c-8.7,0.2-15.7,2.9-20.8,8.3c-5.1,5.3-7.7,12.3-7.7,20.8v3.4h-2.9
		V93.1c2.7,1.1,7.5,2.3,14.4,3.4c6.9,1.1,13.4,1.7,19.2,1.7h114.9c9.3-0.2,16.9-0.9,22.8-2.3c5.9-1.3,9.5-2.3,10.8-2.9v49.6h-2.9
		v-3.4c0-8.6-2.6-15.5-7.7-20.8c-5.1-5.3-12.1-8.1-20.8-8.3H1415z"/>
	<path class="st1" d="M1503.9,295.2c4.9,0,9.2-1.8,12.7-5.3c3.5-3.5,5.4-7.7,5.6-12.7V119c-0.2-4.9-2-9.1-5.6-12.5
		c-3.5-3.4-7.7-5.1-12.7-5.1h-3.7v-2.9h86.7l-0.3,2.9h-3.4c-4.9,0-9.2,1.7-12.8,5.1c-3.6,3.4-5.4,7.6-5.4,12.5v158.2
		c0,4.9,1.8,9.2,5.4,12.7c3.6,3.5,7.9,5.3,12.8,5.3h3.4l0.3,2.9h-86.7v-2.9H1503.9z"/>
</g>
<path class="st1" d="M311.4,179.8c8.1,8.1,17.3,10.6,21,11.5c-3.7,0.8-12.8,3.3-21,11.5s-10.6,17.3-11.5,20.9
	c-0.8-3.7-3.3-12.8-11.5-20.9s-17.3-10.6-21-11.5c3.7-0.8,12.8-3.3,21-11.5s10.6-17.3,11.5-20.9
	C300.7,162.5,303.2,171.7,311.4,179.8z"/>
</svg>
